<svg xmlns="http://www.w3.org/2000/svg" width="108" height="14" fill="none">
	<path fill="#000"
		d="M.585 14V.91H2.17v5.829h6.98V.909h1.586V14H9.15V8.145H2.17V14H.584Zm13.324 0V.91h7.901v1.405h-6.315V6.74H21.4v1.406h-5.906v4.449h6.417V14H13.91Zm10.758 0V.91h4.424c1.022 0 1.862.174 2.518.523.656.345 1.142.82 1.457 1.426.316.605.473 1.293.473 2.064 0 .772-.157 1.456-.473 2.052-.315.597-.799 1.065-1.45 1.406-.653.337-1.486.505-2.5.505h-3.58V7.455h3.529c.699 0 1.261-.103 1.688-.307.43-.205.741-.495.933-.87.196-.379.294-.83.294-1.355 0-.524-.098-.982-.294-1.374-.196-.392-.51-.695-.94-.908-.43-.217-1-.326-1.707-.326h-2.787V14h-1.585Zm6.162-5.88L34.051 14H32.21l-3.17-5.88h1.79ZM36.181 14V.91h4.577c.912 0 1.664.157 2.256.472.592.311 1.033.73 1.323 1.26.29.523.435 1.105.435 1.744 0 .563-.1 1.027-.3 1.394a2.337 2.337 0 0 1-.78.87c-.32.212-.667.37-1.042.472v.128c.4.026.803.166 1.208.422.405.256.743.622 1.016 1.1.273.477.41 1.06.41 1.75 0 .657-.15 1.247-.448 1.771-.298.525-.77.94-1.413 1.247-.643.307-1.48.46-2.512.46h-4.73Zm1.585-1.406h3.145c1.036 0 1.77-.2 2.205-.601.44-.405.659-.895.659-1.47 0-.444-.113-.853-.34-1.228a2.451 2.451 0 0 0-.964-.907c-.418-.23-.912-.345-1.483-.345h-3.222v4.55Zm0-5.932h2.94a2.9 2.9 0 0 0 1.292-.281c.388-.188.694-.452.92-.793.23-.34.345-.741.345-1.202 0-.575-.2-1.063-.6-1.463-.401-.405-1.036-.608-1.905-.608h-2.992v4.347ZM48.425 14h-1.662L51.57.91h1.636L58.013 14h-1.662L52.439 2.98h-.102L48.425 14Zm.614-5.114h6.698v1.407h-6.699V8.886ZM60.051 14V.91h1.585v11.684h6.085V14h-7.67Zm14.753 0v-1.15l7.057-10.535h-7.134V.91h9.026v1.15l-7.057 10.535h7.133V14h-9.025Zm11.684 0V.91h7.901v1.405h-6.315V6.74h5.906v1.406h-5.906v4.449h6.417V14H86.49ZM107.629.91V14h-1.534L98.96 3.722h-.127V14h-1.586V.91h1.534l7.16 10.303h.127V.91h1.56Z" />
</svg>