<svg xmlns="http://www.w3.org/2000/svg" width="39" height="58" fill="none">
	<rect width="33" height="56" x="2.5" y=".5" fill="#E7E9B2" stroke="#000" rx="16.5" />
	<path fill="#3FC7F4" stroke="#000"
		d="M35.5 43.417v2.64c0 6.32-5.123 11.443-11.444 11.443H13.944C7.624 57.5 2.5 52.377 2.5 46.056v-2.64c0-6.659 6.618-11.293 12.877-9.016 2.34.852 4.906.852 7.246 0 6.259-2.277 12.877 2.357 12.877 9.017Z" />
	<path fill="#BBE6FB" stroke="#000"
		d="M35.466 38.795c0 .685-.366 1.396-1.157 2.102-.79.706-1.963 1.364-3.455 1.927-2.98 1.125-7.131 1.83-11.741 1.83-4.61 0-8.76-.705-11.74-1.83-1.493-.563-2.666-1.221-3.456-1.926-.792-.707-1.158-1.418-1.158-2.103 0-.685.366-1.397 1.158-2.102.79-.706 1.963-1.364 3.455-1.927 2.98-1.125 7.131-1.83 11.74-1.83 4.61 0 8.761.705 11.742 1.83 1.492.563 2.664 1.221 3.455 1.927.791.706 1.157 1.417 1.157 2.102Z" />
	<path fill="#C3CE40" stroke="#000"
		d="M14.5 13.5c.636 2.226 5.09 8.123 5.09 8.123s4.135-5.405 4.77-8.585c.636-3.18 0-4.77-.636-6.678C23.088 4.452 19.591 1 19.591 1s-3.95 5.036-4.77 7.268C14 10.5 13.863 11.274 14.5 13.5ZM5.009 24.539c1.2.976 5.9 2.877 5.9 2.877s.195-4.544-.674-6.53c-.869-1.985-1.074-2.442-2.905-3.414-1.83-.972-4.455-1.553-4.455-1.553s.047 4.892.308 6.007c.26 1.114.625 1.637 1.826 2.613ZM33.925 23.54c-1.15 1.128-5.59 3.807-5.59 3.807s-.766-4.916-.033-7.052c.734-2.136 1.663-2.88 2.703-3.814C32.044 15.545 35 14 35 14s.18 5.323 0 6.499c-.18 1.176.075 1.914-1.075 3.04Z" />
	<path stroke="#000"
		d="M19.667 10v37.66m0 0L16 50m3.667-2.34L23 49.787M5.645 22c2.885 1.24 3.547 3.247 5.162 5v17.037m0 0-2.904 1.667m2.904-1.667v5.556m-2.904-3.89L5 44.038m2.903 1.667v2.963m2.904.926-2.904 1.666m2.904-1.666L15 52M32.059 21c-2.265 1.125-2.603 3.488-3.883 5.5V45m0 0v6.5m0-6.5 2.162 2.75L32.5 50.5" />
</svg>